<?xml version="1.0" standalone="no"?>
<!DOCTYPE svg PUBLIC "-//W3C//DTD SVG 20010904//EN"
 "http://www.w3.org/TR/2001/REC-SVG-20010904/DTD/svg10.dtd">
<svg version="1.0" xmlns="http://www.w3.org/2000/svg"
 width="200.000000pt" height="200.000000pt" viewBox="0 0 200.000000 200.000000"
 preserveAspectRatio="xMidYMid meet">
<metadata>
Created by potrace 1.16, written by Peter Selinger 2001-2019
</metadata>
<g transform="translate(0.000000,200.000000) scale(0.100000,-0.100000)"
fill="#000000" stroke="none">
<path d="M710 1510 l0 -180 290 0 290 0 0 180 0 180 -290 0 -290 0 0 -180z"/>
<path d="M710 1280 l0 -30 290 0 290 0 0 30 0 30 -290 0 -290 0 0 -30z"/>
<path d="M710 1122 c0 -109 0 -109 27 -121 49 -22 123 -82 139 -112 28 -56 34
-120 19 -225 -21 -147 -19 -246 8 -325 21 -62 85 -179 97 -179 12 0 76 117 97
179 25 74 30 191 12 282 -18 95 -15 198 8 251 21 47 72 93 141 126 l32 16 0
108 0 108 -290 0 -290 0 0 -108z"/>
</g>
</svg>
