<?xml version="1.0" standalone="no"?>
<!DOCTYPE svg PUBLIC "-//W3C//DTD SVG 20010904//EN"
 "http://www.w3.org/TR/2001/REC-SVG-20010904/DTD/svg10.dtd">
<svg version="1.0" xmlns="http://www.w3.org/2000/svg"
 width="200.000000pt" height="200.000000pt" viewBox="0 0 200.000000 200.000000"
 preserveAspectRatio="xMidYMid meet">
<metadata>
Created by potrace 1.16, written by Peter Selinger 2001-2019
</metadata>
<g transform="translate(0.000000,200.000000) scale(0.100000,-0.100000)"
fill="#f7ede2" stroke="none">
<path d="M415 1940 c-225 -20 -342 -44 -388 -81 l-27 -20 0 -838 0 -838 22
-20 c72 -66 402 -98 923 -90 485 8 699 39 735 106 6 12 10 125 10 295 l0 275
58 16 c106 31 195 103 235 193 28 64 21 202 -15 289 -42 103 -104 203 -194
311 l-84 102 0 91 c0 49 -5 99 -10 110 -21 38 -94 61 -275 86 -130 17 -831 27
-990 13z m945 -121 c102 -11 110 -14 73 -20 -217 -39 -973 -39 -1186 0 -36 6
-22 9 88 19 72 7 146 14 165 16 82 9 753 -2 860 -15z m-1162 -125 l52 -7 0
-456 c0 -496 1 -501 55 -501 54 0 55 5 55 492 0 392 2 448 15 448 13 0 15 -23
15 -151 0 -84 5 -159 10 -170 15 -27 64 -25 84 3 13 18 16 52 16 167 l0 144
173 -6 c294 -9 764 17 895 50 l22 5 0 -432 0 -431 -22 6 c-47 14 -130 55 -185
91 -100 67 -275 240 -380 377 -42 54 -47 66 -48 113 -1 66 -26 103 -82 123
-36 13 -43 12 -79 -5 -50 -24 -79 -79 -69 -131 9 -48 57 -93 99 -93 27 0 38
-8 72 -55 110 -149 256 -297 394 -400 73 -54 206 -120 263 -130 l37 -7 0 -259
0 -258 -37 -10 c-255 -65 -1170 -67 -1411 -2 l-42 12 0 746 0 745 23 -6 c12
-3 46 -9 75 -12z m1571 -342 c23 -35 59 -98 79 -140 33 -68 37 -86 37 -154 0
-70 -2 -79 -31 -115 -32 -39 -89 -77 -136 -88 l-28 -7 0 307 c0 349 -9 327 79
197z"/>
</g>
</svg>
